<?xml version="1.0" encoding="UTF-8"?>
<svg width="20px" height="21px" viewBox="0 0 20 21" version="1.1" xmlns="http://www.w3.org/2000/svg" xmlns:xlink="http://www.w3.org/1999/xlink">
    <!-- Generator: Sketch 55 (78076) - https://sketchapp.com -->
    <title>yousite-01备份</title>
    <desc>Created with Sketch.</desc>
    <g id="0726-门户首页修改" stroke="none" stroke-width="1" fill="none" fill-rule="evenodd">
        <g id="个人门户_导航方案一" transform="translate(-31.000000, -69.000000)">
            <g id="分组-19">
                <g id="nav" transform="translate(0.000000, 60.000000)">
                    <g id="yousite-01备份-2" transform="translate(31.000000, 9.000000)">
                        <g id="yousite-01备份">
                            <g id="编组" transform="translate(9.000000, 0.000000)" fill="#FBBC05">
                                <path d="M9.25,6.6 C10.3333333,4.90769231 9.83333333,2.53846154 8.16666667,1.43846154 C7.16666667,0.761538462 6,0.676923077 5,1.1 C5,1.1 5,1.1 5,1.1 L5,1.1 C3.83333333,1.43846154 1.66666667,2.70769231 0.916666667,3.80769231 C-0.333333333,5.83846154 -0.25,8.37692308 1,10.2384615 L7.25,8.03846154 L7.25,8.03846154 C8.08333333,7.86923077 8.75,7.36153846 9.25,6.6" id="Fill-1"></path>
                            </g>
                            <g id="编组" transform="translate(1.000000, 11.000000)" fill="#4285F4">
                                <path d="M0.583333333,3.58333333 C-0.5,5.33333333 3.46944695e-18,7.58333333 1.66666667,8.66666667 C2.66666667,9.33333333 3.83333333,9.41666667 4.83333333,9.08333333 C4.83333333,9.08333333 4.83333333,9.08333333 4.83333333,9.08333333 L4.83333333,9.08333333 C6,8.66666667 8.16666667,7.5 8.91666667,6.33333333 C10.1666667,4.33333333 10.0833333,1.83333333 8.75,8.8817842e-16 L2.5,2.16666667 L2.5,2.16666667 C1.75,2.41666667 1.08333333,2.91666667 0.583333333,3.58333333 Z" id="Fill-3"></path>
                            </g>
                            <path d="M7.98903404,7.24954266 C7.82282429,9.41013806 5.99451702,11.1552344 3.75068537,10.9890347 C1.5899586,10.9059349 -0.15524379,8.99463895 0.0109659615,6.75094372 C0.177175713,4.50724849 2.00548298,2.84525202 4.24931463,3.01145167 C6.4100414,3.17765131 8.15524379,5.08894725 7.98903404,7.24954266" id="Fill-5" fill="#EB4335"></path>
                            <path d="M19.989034,14.2493146 C19.8228243,16.4100414 17.994517,18.1552438 15.7506854,17.989034 C13.5899586,17.8228243 11.8447562,15.994517 12.010966,13.7506854 C12.1771757,11.5899586 14.005483,9.84475621 16.2493146,10.010966 C18.4100414,10.1771757 20.1552438,12.0885879 19.989034,14.2493146" id="Fill-7" fill="#34A853"></path>
                        </g>
                    </g>
                </g>
            </g>
        </g>
    </g>
</svg>